<svg xmlns="http://www.w3.org/2000/svg" viewBox="0 0 178.13 178.33"><defs><style>.cls-1{fill:#949494;}</style></defs><g id="Layer_2" data-name="Layer 2"><g id="Layer_1-2" data-name="Layer 1"><path class="cls-1" d="M136.33,124.9c13.08,13.06,25.91,25.87,38.73,38.69,3.19,3.19,4.13,6.86,1.71,10.85-2.19,3.61-5.72,4.64-9.54,3.35-1.92-.65-3.64-2.27-5.14-3.75-12.41-12.31-24.75-24.69-37.31-37.25C104.93,151.66,83,157,58.77,151.38A73.11,73.11,0,0,1,13.39,120.1C-8.7,87.23-3.1,43.56,27.52,17.79c29.69-25,74.05-23.48,102.11,3.46C159,49.4,160.49,93.61,136.33,124.9ZM77,16.65A60.11,60.11,0,0,0,16.55,75.88C16.2,110.17,43,136.64,76,136.9s58.82-24.64,60.55-54.79C139.08,38.24,104.48,16.16,77,16.65Z"/></g></g></svg>