<svg xmlns="http://www.w3.org/2000/svg" viewBox="0 0 95.73 84.93"><g id="Layer_2" data-name="Layer 2"><g id="Layer_1-2" data-name="Layer 1"><path d="M.09,53.17H36.47c2.25,10.09,3.49,11,13.88,10.58,6-.25,7.54-2.09,8.83-10.56H95.47c0,8.36.4,16.62-.15,24.81-.31,4.51-4.66,6.86-10.7,6.87q-31,.06-61.93,0c-4.49,0-9,.14-13.48-.1C4,84.51.39,81.39.17,76.53-.16,68.92.09,61.28.09,53.17Z"/><path d="M95.71,48.2H59.56c-2.8-10.11-3.93-11-13.93-10.57-5.84.23-7.48,2.09-9,10.45H.15C.15,40.55-.17,33.26.27,26c.29-4.95,4.41-7.84,10.41-8,8.81-.17,17.62-.12,26.43-.12q24.2,0,48.38.06c6.89,0,10.11,3.11,10.2,9.94C95.78,34.55,95.71,41.16,95.71,48.2Z"/><path d="M48.07,0c4.85.58,9.68.89,14.37,1.86,1.51.31,2.66,2.35,4,3.6-1.67.89-3.32,2.49-5,2.54Q48,8.36,34.66,8c-1.72-.05-3.4-1.51-5.09-2.32C31,4.32,32.16,2.15,33.76,1.81,38.45.82,43.29.55,48.07,0Z"/><path d="M53.31,50.62c.27,3.69-.48,6.54-5.1,6.68-4.4.12-5.73-2.06-5.62-6.14.09-3.76.09-6.91,5.3-6.89C52.55,44.29,53.53,46.76,53.31,50.62Z"/><path d="M63.25,13.24c-1.55,1.36-2.67,3-3.31,2.77-1.14-.3-2.82-1.72-2.77-2.59.07-1.23,1.5-2.38,2.35-3.57Z"/><path d="M39.13,15.92h-6a40.94,40.94,0,0,1,1.67-5.53c.15-.33,2.3-.34,2.47,0A40,40,0,0,1,39.13,15.92Z"/></g></g></svg>