<svg xmlns="http://www.w3.org/2000/svg" viewBox="0 0 168.59 126.32"><defs><style>.cls-1{fill:#fff;}</style></defs><g id="Layer_2" data-name="Layer 2"><g id="Layer_1-2" data-name="Layer 1"><path class="cls-1" d="M168.59,35.5v77.38a.79.79,0,0,0-.19.26c-2.23,8.93-7.66,13.18-16.87,13.18H17c-.55,0-1.1,0-1.64,0A15.5,15.5,0,0,1,0,110.5Q0,73.63,0,36.75c0-.39.08-.79.13-1.26.3.17.45.24.58.33L69,81.35c10.21,6.81,20.32,6.83,30.55,0l61-40.69C163.25,38.93,165.93,37.23,168.59,35.5Z"/><path class="cls-1" d="M168.59,17.72c-.63,1.68-1,3.56-2,5a19.74,19.74,0,0,1-4.86,5.23Q127.43,51,93,73.87c-5.67,3.76-11.66,3.74-17.32,0q-34.56-22.89-69-46a14.66,14.66,0,0,1-6-16.44A15.53,15.53,0,0,1,14.9,0c.49,0,1,0,1.48,0H152.19c7.5,0,13.36,4,15.58,10.63.31.92.54,1.87.82,2.81Z"/></g></g></svg>