<svg xmlns="http://www.w3.org/2000/svg" viewBox="0 0 179.82 179.83"><defs><style>.cls-1{fill:#fff;}</style></defs><g id="Layer_2" data-name="Layer 2"><g id="Layer_1-2" data-name="Layer 1"><path class="cls-1" d="M0,160.5V19.32a7.46,7.46,0,0,0,.32-1A20.93,20.93,0,0,1,11.18,2.91C13.67,1.54,16.59,1,19.32,0H160.5a1.84,1.84,0,0,0,.46.24c12.17,2.5,18.86,10.7,18.86,23.14V157c0,13.34-9.44,22.81-22.73,22.83q-19.32,0-38.63,0c-4.45,0-6.42-2-6.42-6.42q0-31.07,0-62.15c0-4.45,1.95-6.42,6.41-6.43,5.33,0,10.65,0,16,0,.62,0,1.24-.06,2-.1v-15h-2.16c-5.38,0-10.76,0-16.15,0-4,0-6.06-2.07-6.07-6q0-10,0-20c0-4.3,2.43-6.69,6.78-6.7,5.21,0,10.42,0,15.63,0h1.86v-15c-.61,0-1.12-.08-1.64-.08-5.38,0-10.77,0-16.15,0C106.09,41.88,97,51,96.93,63.5c0,6.68,0,13.35,0,20,0,4.13-2,6.13-6.13,6.15-5.39,0-10.77,0-16.16,0H72.7v15.13h2.24c5.38,0,10.77,0,16.15,0,3.79,0,5.83,2.16,5.83,5.94q0,31.61,0,63.21c0,3.58-2.13,5.82-5.59,5.83-23.29,0-46.58.06-69.88,0A21.55,21.55,0,0,1,1.3,165.2C.76,163.67.43,162.07,0,160.5Z"/><path class="cls-1" d="M122.73,169.13c.67,0,1.24.09,1.81.09,10.77,0,21.54,0,32.31,0,7.65,0,12.37-4.72,12.37-12.38q0-66.9,0-133.8c0-7.76-4.71-12.44-12.49-12.44H23.11C15.31,10.6,10.6,15.28,10.6,23q0,66.9,0,133.8c0,7.67,4.71,12.39,12.36,12.4H84.41c.62,0,1.23-.06,1.8-.09V115.47h-2c-5.33,0-10.65,0-16,0-4.21,0-6.3-2.06-6.31-6.22q0-11.94,0-23.88c0-4.21,2.07-6.28,6.24-6.29,5.39,0,10.77,0,16.16,0h2V77c0-5-.08-10.07.06-15.1a31.48,31.48,0,0,1,30.77-30.6c8-.17,15.92-.06,23.88-.05,4,0,6,2.09,6,6.11q0,12,0,24.05c0,4.11-2.05,6.11-6.18,6.13H124.57c-.62,0-1.24,0-1.8.08V79.06h17.87c4.42,0,6.44,2,6.45,6.45q0,11.77,0,23.53c0,4.41-2,6.42-6.48,6.43-5.33,0-10.65,0-16,0-.62,0-1.24.06-1.9.09Z"/></g></g></svg>