<svg xmlns="http://www.w3.org/2000/svg" viewBox="0 0 223.82 224.52"><defs><style>.cls-1{fill:#fff;}.cls-2{fill:none;}</style></defs><g id="Layer_2" data-name="Layer 2"><g id="Layer_1-2" data-name="Layer 1"><path class="cls-1" d="M223.82,66.3v90.29c-.12.78-.27,1.56-.36,2.34-.47,4.42-.69,8.88-1.43,13.25-2.38,14.08-8.4,26.29-19.21,35.88C191.1,218.45,177,222.6,161.73,223.64c-5.3.35-10.61.59-15.91.88H78.34c-1.37-.12-2.74-.31-4.12-.35-9-.23-17.95-.58-26.73-2.73C29,216.91,15.3,206.4,7.13,189.09,2,178.33.51,166.75.39,155,.13,130.83-.07,106.66,0,82.49c.05-11,.16-22.06,2.54-32.91C6.77,30.38,17.25,16,35.21,7.45c10.62-5,22-6.54,33.63-6.81,31-.74,61.9-1.1,92.84.4A71,71,0,0,1,187.78,7c20.54,9.31,31.33,25.81,34.71,47.64C223.09,58.48,223.39,62.4,223.82,66.3ZM112,204.69v-.35c5.92,0,11.84.18,17.75,0,12.76-.46,25.61-.3,38.23-1.9,17.26-2.17,28.92-12.13,33.14-29.31a96.35,96.35,0,0,0,2.4-21.25q.57-33.94.33-67.92a226.75,226.75,0,0,0-1.62-27.08c-2.27-18.1-13.5-30.32-31.42-33.91a130.79,130.79,0,0,0-23.49-2.1Q116,20.38,84.7,20.73c-10,.12-20.07.36-29.89,1.94C38,25.38,26.75,35.38,23,52.25A118.05,118.05,0,0,0,20.6,75.49q-.62,27.27-.34,54.56c.14,12.47.48,25,1.68,37.39s7,22.65,17.91,29.39c7.25,4.49,15.4,6.3,23.79,6.61C79.76,204,95.89,204.29,112,204.69Z"/><path class="cls-2" d="M112,204.69c-16.13-.4-32.26-.66-48.38-1.25-8.39-.31-16.54-2.12-23.79-6.61-10.91-6.74-16.72-17-17.91-29.39s-1.54-24.92-1.68-37.39q-.29-27.29.34-54.56A118.05,118.05,0,0,1,23,52.25c3.8-16.87,15-26.87,31.86-29.58,9.82-1.58,19.91-1.82,29.89-1.94q31.32-.37,62.65.11a130.79,130.79,0,0,1,23.49,2.1c17.92,3.59,29.15,15.81,31.42,33.91a226.75,226.75,0,0,1,1.62,27.08q.21,34-.33,67.92a96.35,96.35,0,0,1-2.4,21.25c-4.22,17.18-15.88,27.14-33.14,29.31-12.62,1.6-25.47,1.44-38.23,1.9-5.91.21-11.83,0-17.75,0Zm-.09-34.7c31.6.2,57.38-25.41,57.74-57.36C170,81,144.3,55,112.29,54.72c-31.66-.29-57.64,25.49-57.88,57.43C54.18,143.82,80,169.79,111.93,170ZM185.38,52.48a13.43,13.43,0,0,0-26.85-.13,13.43,13.43,0,1,0,26.85.13Z"/><path class="cls-1" d="M111.93,170c-31.92-.2-57.75-26.17-57.52-57.84.24-31.94,26.22-57.72,57.88-57.43C144.3,55,170,81,169.67,112.63,169.31,144.58,143.53,170.19,111.93,170ZM74.71,112.36A37.35,37.35,0,1,0,112,75,37.24,37.24,0,0,0,74.71,112.36Z"/><path class="cls-1" d="M185.38,52.48A13.43,13.43,0,1,1,171.93,39,13.38,13.38,0,0,1,185.38,52.48Z"/></g></g></svg>