<svg xmlns="http://www.w3.org/2000/svg" viewBox="0 0 201.41 247.8"><defs><style>.cls-1{fill:#fff;}</style></defs><g id="Layer_2" data-name="Layer 2"><g id="Layer_1-2" data-name="Layer 1"><path class="cls-1" d="M46.1,247.8a8.48,8.48,0,0,1-1-2.12c-2.63-16.59-4.68-33.29-1.8-50,1.82-10.52,4.85-20.83,7.39-31.22C54.44,149.24,58.26,134,62,118.78a6.73,6.73,0,0,0-.33-3.65c-4.89-13.45-5.88-26.93.43-40.14,4.59-9.61,12.12-15.88,23.11-16.71,11.87-.9,20.39,7.06,20.89,19,.29,6.79-1.3,13.27-3.22,19.68q-4.49,14.91-9.13,29.75c-5.54,17.62,7.76,30,23.5,29.6,13.55-.36,24.14-6.68,32.54-16.95s13-22.16,15.06-35.09C167,90.58,166.12,77.1,161,64.14c-8.22-20.62-23.79-32.37-45.36-36.2C99.33,25.06,83.21,26,68.07,33.09,43.18,44.74,30,64.59,29,92.07A48,48,0,0,0,40.19,125.2c1.31,1.59,2.09,3.21,1.56,5.3-1.33,5.22-2.55,10.48-4,15.66-1.15,4.14-2.41,4.62-6.29,2.77-9.3-4.45-15.93-11.71-20.85-20.52-15-26.82-13.51-53.76.64-80.22C22.42,27.3,40.3,13.91,62.59,6.75c27.65-8.89,55.51-9.56,82.79,1.4C171.43,18.62,189.81,36.83,198,64.21c5.37,18,4,36.05-1.16,53.83-5.72,19.66-16.31,36.18-33.16,48.23A72.24,72.24,0,0,1,115.19,180c-10.87-.8-20.68-4.65-28.47-12.67-1.11-1.14-2-2.46-3.25-4-1.86,6.78-4,13.26-5.4,19.89-4.81,22.44-15,42.36-28,61-.83,1.18-1.69,2.34-2.53,3.51Z"/></g></g></svg>