<svg xmlns="http://www.w3.org/2000/svg" viewBox="0 0 168.62 168.68"><g id="Layer_2" data-name="Layer 2"><g id="Layer_1-2" data-name="Layer 1"><path d="M.8,12.4A17.4,17.4,0,0,1,17.16.09C32.58,0,48-.07,63.41.12A29.19,29.19,0,0,1,84.08,9q23.6,23.45,47.05,47l30.72,30.74c9,9,9,21.41,0,30.42q-22.29,22.29-44.56,44.6a22.11,22.11,0,0,1-12.52,6.72,1.46,1.46,0,0,0-.42.23H99.44c-3.77-.83-7.4-2-10.42-4.56-.87-.74-1.72-1.52-2.54-2.34Q48.29,123.61,10.1,85.42C4.72,80.05,1.22,73.79.27,66.18A5.33,5.33,0,0,0,0,65.26V15.2C.27,14.27.51,13.33.8,12.4ZM38.74,56.27A17.57,17.57,0,1,0,21.08,38.76,17.68,17.68,0,0,0,38.74,56.27Z"/></g></g></svg>