<svg xmlns="http://www.w3.org/2000/svg" viewBox="0 0 168.62 168.68"><defs><style>.cls-1{fill:#fff;}</style></defs><g id="Layer_2" data-name="Layer 2"><g id="Layer_1-2" data-name="Layer 1"><path class="cls-1" d="M168.62,15.2V65.26a6.4,6.4,0,0,0-.27.92c-.95,7.61-4.44,13.87-9.83,19.24q-38.22,38.14-76.38,76.36c-.81.82-1.66,1.6-2.54,2.34-3,2.56-6.64,3.73-10.42,4.56H64.24a1.34,1.34,0,0,0-.42-.23,22.12,22.12,0,0,1-12.51-6.72q-22.23-22.35-44.56-44.6c-9-9-9-21.4,0-30.42Q22.13,71.33,37.5,56,61,32.46,84.54,9A29.19,29.19,0,0,1,105.21.12c15.42-.19,30.84-.12,46.26,0A17.4,17.4,0,0,1,167.82,12.4C168.11,13.33,168.36,14.27,168.62,15.2ZM147.55,38.76a17.57,17.57,0,1,0-17.67,17.51A17.6,17.6,0,0,0,147.55,38.76Z"/><path class="cls-1" d="M147.55,38.76A17.57,17.57,0,1,1,130,21.13,17.65,17.65,0,0,1,147.55,38.76Z"/></g></g></svg>