<svg xmlns="http://www.w3.org/2000/svg" viewBox="0 0 128.34 128.33"><defs><style>.cls-1{fill:#fff;}</style></defs><g id="Layer_2" data-name="Layer 2"><g id="Layer_1-2" data-name="Layer 1"><path class="cls-1" d="M6,3.12c4.5-3.18,9.57-3.29,14.81-3C45.27,1.32,67.25,9.31,86.16,24.78c27.45,22.45,41.52,51.65,42.18,87.17.21,11.33-10,18.94-20.7,15.58A15.58,15.58,0,0,1,97,112.64a83,83,0,0,0-4.58-27,80.12,80.12,0,0,0-26.88-37.2C50.9,37.09,34.25,31.63,15.76,31.37a15.61,15.61,0,0,1-14-22.79C2.13,7.76,2.58,7,3,6.14Z"/><path class="cls-1" d="M62,68.07a63.31,63.31,0,0,1,17.89,44.15,15.33,15.33,0,0,1-9.67,14.88,15.83,15.83,0,0,1-17.66-3.9,16.07,16.07,0,0,1-4.08-11.15,31,31,0,0,0-5.33-17.36c-6.41-9.44-15.35-14.47-26.79-14.82-4.46-.13-8.49-1.27-11.64-4.51C0,70.48-1.16,64.64,1.2,58.35s7.14-9.56,13.71-9.83a59.94,59.94,0,0,1,26.4,5.22A66.7,66.7,0,0,1,62,68.07Z"/><path class="cls-1" d="M26.75,123.76A15.71,15.71,0,1,1,27,101.55,15.72,15.72,0,0,1,26.75,123.76Z"/></g></g></svg>