<svg xmlns="http://www.w3.org/2000/svg" viewBox="0 0 280.79 197"><defs><style>.cls-1{fill:none;}</style></defs><g id="Layer_2" data-name="Layer 2"><g id="Layer_1-2" data-name="Layer 1"><path class="cls-1" d="M139.85,0c28.81,1.13,57.63,2.15,86.44,3.46a149,149,0,0,1,20.29,2.43c16.2,3,26.57,13.87,29.64,30.87,4.24,23.5,5.09,47.28,4.31,71.05-.55,16.62-2.16,33.23-3.75,49.79-1.18,12.25-6.1,22.67-16.91,29.61-6.54,4.19-13.92,5.39-21.4,6.17-29,3.06-58.16,3.75-87.29,3.6s-58.45-1-87.66-2a249.92,249.92,0,0,1-28.46-2.91c-15.92-2.36-27.23-13.23-30-29.67C3,149.88,1.79,137.14.89,124.43A406.41,406.41,0,0,1,1.52,62.8,228.82,228.82,0,0,1,5.36,34.18c3.53-16.84,15.31-27,32.31-29.09C65,1.68,92.47,1.37,119.94.91c6.63-.11,13.25,0,19.88,0Zm-27.3,141,73-42-73-42Z"/></g></g></svg>